ffmpeg started on 2019-02-01 at 21:33:28
Report written to "/home/kieran110s/ifigit/ifiscripts/rawcooked_examples/ifi_rawcooked_sample_package/7fc037bd-c323-4db1-9b49-07c605ba6064.mkv_rawcooked.log"
Command line:
ffmpeg -framerate 24 -start_number 000001 -i "/home/kieran110s/ifigit/ifiscripts/rawcooked_examples/dpx_48_frames/dont_call_me_eddie_%06d.dpx" -c:a copy -c:v ffv1 -coder 1 -context 1 -f matroska -g 1 -level 3 -slicecrc 1 -slices 16 -attach /home/kieran110s/ifigit/ifiscripts/rawcooked_examples/ifi_rawcooked_sample_package/7fc037bd-c323-4db1-9b49-07c605ba6064.mkv.rawcooked_reversibility_data -metadata:s:1 "mimetype=application/octet-stream" -metadata:s:1 "filename=RAWcooked reversibility data" -f matroska /home/kieran110s/ifigit/ifiscripts/rawcooked_examples/ifi_rawcooked_sample_package/7fc037bd-c323-4db1-9b49-07c605ba6064.mkv
ffmpeg version N-90315-gf706cdd Copyright (c) 2000-2018 the FFmpeg developers
  built with gcc 5.4.0 (Ubuntu 5.4.0-6ubuntu1~16.04.9) 20160609
  configuration: --prefix=/home/kieran110s/ffmpeg_build --pkg-config-flags=--static --extra-cflags=-I/home/kieran110s/ffmpeg_build/include --extra-ldflags=-L/home/kieran110s/ffmpeg_build/lib --extra-libs='-lpthread -lm' --bindir=/home/kieran110s/bin --enable-gpl --enable-libass --enable-libfdk-aac --enable-libfreetype --enable-libmp3lame --enable-libopus --enable-libtheora --enable-libvorbis --enable-libvpx --enable-libx264 --enable-libx265 --enable-nonfree --enable-libopenjpeg
  libavutil      56.  9.100 / 56.  9.100
  libavcodec     58. 14.100 / 58. 14.100
  libavformat    58. 10.100 / 58. 10.100
  libavdevice    58.  2.100 / 58.  2.100
  libavfilter     7. 13.100 /  7. 13.100
  libswscale      5.  0.102 /  5.  0.102
  libswresample   3.  0.101 /  3.  0.101
  libpostproc    55.  0.100 / 55.  0.100
Splitting the commandline.
Reading option '-framerate' ... matched as AVOption 'framerate' with argument '24'.
Reading option '-start_number' ... matched as AVOption 'start_number' with argument '000001'.
Reading option '-i' ... matched as input url with argument '/home/kieran110s/ifigit/ifiscripts/rawcooked_examples/dpx_48_frames/dont_call_me_eddie_%06d.dpx'.
Reading option '-c:a' ... matched as option 'c' (codec name) with argument 'copy'.
Reading option '-c:v' ... matched as option 'c' (codec name) with argument 'ffv1'.
Reading option '-coder' ... matched as AVOption 'coder' with argument '1'.
Reading option '-context' ... matched as AVOption 'context' with argument '1'.
Reading option '-f' ... matched as option 'f' (force format) with argument 'matroska'.
Reading option '-g' ... matched as AVOption 'g' with argument '1'.
Reading option '-level' ... matched as AVOption 'level' with argument '3'.
Reading option '-slicecrc' ... matched as AVOption 'slicecrc' with argument '1'.
Reading option '-slices' ... matched as AVOption 'slices' with argument '16'.
Reading option '-attach' ... matched as option 'attach' (add an attachment to the output file) with argument '/home/kieran110s/ifigit/ifiscripts/rawcooked_examples/ifi_rawcooked_sample_package/7fc037bd-c323-4db1-9b49-07c605ba6064.mkv.rawcooked_reversibility_data'.
Reading option '-metadata:s:1' ... matched as option 'metadata' (add metadata) with argument 'mimetype=application/octet-stream'.
Reading option '-metadata:s:1' ... matched as option 'metadata' (add metadata) with argument 'filename=RAWcooked reversibility data'.
Reading option '-f' ... matched as option 'f' (force format) with argument 'matroska'.
Reading option '/home/kieran110s/ifigit/ifiscripts/rawcooked_examples/ifi_rawcooked_sample_package/7fc037bd-c323-4db1-9b49-07c605ba6064.mkv' ... matched as output url.
Finished splitting the commandline.
Parsing a group of options: global .
Successfully parsed a group of options.
Parsing a group of options: input url /home/kieran110s/ifigit/ifiscripts/rawcooked_examples/dpx_48_frames/dont_call_me_eddie_%06d.dpx.
Successfully parsed a group of options.
Opening an input file: /home/kieran110s/ifigit/ifiscripts/rawcooked_examples/dpx_48_frames/dont_call_me_eddie_%06d.dpx.
[image2 @ 0x277e7c0] Opening '/home/kieran110s/ifigit/ifiscripts/rawcooked_examples/dpx_48_frames/dont_call_me_eddie_000001.dpx' for reading
[file @ 0x2781900] Setting default whitelist 'file,crypto'
[AVIOContext @ 0x2781540] Statistics: 1230464 bytes read, 0 seeks
[image2 @ 0x277e7c0] Opening '/home/kieran110s/ifigit/ifiscripts/rawcooked_examples/dpx_48_frames/dont_call_me_eddie_000002.dpx' for reading
[file @ 0x2781940] Setting default whitelist 'file,crypto'
[AVIOContext @ 0x277f800] Statistics: 1230464 bytes read, 0 seeks
[image2 @ 0x277e7c0] Opening '/home/kieran110s/ifigit/ifiscripts/rawcooked_examples/dpx_48_frames/dont_call_me_eddie_000003.dpx' for reading
[file @ 0x277f800] Setting default whitelist 'file,crypto'
[AVIOContext @ 0x27816c0] Statistics: 1230464 bytes read, 0 seeks
[image2 @ 0x277e7c0] Opening '/home/kieran110s/ifigit/ifiscripts/rawcooked_examples/dpx_48_frames/dont_call_me_eddie_000004.dpx' for reading
[file @ 0x277f800] Setting default whitelist 'file,crypto'
[AVIOContext @ 0x2781840] Statistics: 1230464 bytes read, 0 seeks
[image2 @ 0x277e7c0] Opening '/home/kieran110s/ifigit/ifiscripts/rawcooked_examples/dpx_48_frames/dont_call_me_eddie_000005.dpx' for reading
[file @ 0x277f800] Setting default whitelist 'file,crypto'
[AVIOContext @ 0x27818c0] Statistics: 1230464 bytes read, 0 seeks
[image2 @ 0x277e7c0] Probe buffer size limit of 5000000 bytes reached
Input #0, image2, from '/home/kieran110s/ifigit/ifiscripts/rawcooked_examples/dpx_48_frames/dont_call_me_eddie_%06d.dpx':
  Duration: 00:00:02.00, start: 0.000000, bitrate: N/A
    Stream #0:0, 5, 1/24: Video: dpx, gbrp10le, 640x480 [SAR 1:1 DAR 4:3], 24 fps, 24 tbr, 24 tbn, 24 tbc
Successfully opened the file.
Parsing a group of options: output url /home/kieran110s/ifigit/ifiscripts/rawcooked_examples/ifi_rawcooked_sample_package/7fc037bd-c323-4db1-9b49-07c605ba6064.mkv.
Applying option c:a (codec name) with argument copy.
Applying option c:v (codec name) with argument ffv1.
Applying option f (force format) with argument matroska.
Applying option attach (add an attachment to the output file) with argument /home/kieran110s/ifigit/ifiscripts/rawcooked_examples/ifi_rawcooked_sample_package/7fc037bd-c323-4db1-9b49-07c605ba6064.mkv.rawcooked_reversibility_data.
Applying option metadata:s:1 (add metadata) with argument mimetype=application/octet-stream.
Applying option metadata:s:1 (add metadata) with argument filename=RAWcooked reversibility data.
Applying option f (force format) with argument matroska.
Successfully parsed a group of options.
Opening an output file: /home/kieran110s/ifigit/ifiscripts/rawcooked_examples/ifi_rawcooked_sample_package/7fc037bd-c323-4db1-9b49-07c605ba6064.mkv.
[file @ 0x2783b80] Setting default whitelist 'file,crypto'
[AVIOContext @ 0x2783ec0] Statistics: 2429 bytes read, 0 seeks
[file @ 0x27872c0] Setting default whitelist 'file,crypto'
Successfully opened the file.
Stream mapping:
  Stream #0:0 -> #0:0 (dpx (native) -> ffv1 (native))
  File /home/kieran110s/ifigit/ifiscripts/rawcooked_examples/ifi_rawcooked_sample_package/7fc037bd-c323-4db1-9b49-07c605ba6064.mkv.rawcooked_reversibility_data -> Stream #0:1
Press [q] to stop, [?] for help
cur_dts is invalid (this is harmless if it occurs once at the start per stream)
detected 4 logical cores
[graph 0 input from stream 0:0 @ 0x27892c0] Setting 'video_size' to value '640x480'
[graph 0 input from stream 0:0 @ 0x27892c0] Setting 'pix_fmt' to value '77'
[graph 0 input from stream 0:0 @ 0x27892c0] Setting 'time_base' to value '1/24'
[graph 0 input from stream 0:0 @ 0x27892c0] Setting 'pixel_aspect' to value '1/1'
[graph 0 input from stream 0:0 @ 0x27892c0] Setting 'sws_param' to value 'flags=2'
[graph 0 input from stream 0:0 @ 0x27892c0] Setting 'frame_rate' to value '24/1'
[graph 0 input from stream 0:0 @ 0x27892c0] w:640 h:480 pixfmt:gbrp10le tb:1/24 fr:24/1 sar:1/1 sws_param:flags=2
[format @ 0x277e640] Setting 'pix_fmts' to value 'yuv420p|yuva420p|yuva422p|yuv444p|yuva444p|yuv440p|yuv422p|yuv411p|yuv410p|bgr0|bgra|yuv420p16le|yuv422p16le|yuv444p16le|yuv444p9le|yuv422p9le|yuv420p9le|yuv420p10le|yuv422p10le|yuv444p10le|yuv420p12le|yuv422p12le|yuv444p12le|yuva444p16le|yuva422p16le|yuva420p16le|yuva444p10le|yuva422p10le|yuva420p10le|yuva444p9le|yuva422p9le|yuva420p9le|gray16le|gray|gbrp9le|gbrp10le|gbrp12le|gbrp14le|gbrap10le|gbrap12le|ya8|gray10le|gray12le|gbrp16le|rgb48le|gbrap16le|rgba64le|gray9le|yuv420p14le|yuv422p14le|yuv444p14le|yuv440p10le|yuv440p12le'
[AVFilterGraph @ 0x2787200] query_formats: 4 queried, 3 merged, 0 already done, 0 delayed
[matroska @ 0x2781f00] get_metadata_duration returned: 0
[matroska @ 0x2781f00] Using dee371c6 for attachment 0
Output #0, matroska, to '/home/kieran110s/ifigit/ifiscripts/rawcooked_examples/ifi_rawcooked_sample_package/7fc037bd-c323-4db1-9b49-07c605ba6064.mkv':
  Metadata:
    encoder         : Lavf58.10.100
    Stream #0:0, 0, 1/1000: Video: ffv1 (FFV1 / 0x31564646), gbrp10le, 640x480 [SAR 1:1 DAR 4:3], q=2-31, 200 kb/s, 24 fps, 1k tbn, 24 tbc
    Metadata:
      encoder         : Lavc58.14.100 ffv1
    Stream #0:1, 0, 1/1000: Attachment: none
    Metadata:
      mimetype        : application/octet-stream
      filename        : RAWcooked reversibility data
Clipping frame in rate conversion by 0.000008
[matroska @ 0x2781f00] Writing block at offset 9, size 321358, pts 0, dts 0, duration 42, keyframe 1
cur_dts is invalid (this is harmless if it occurs once at the start per stream)
[matroska @ 0x2781f00] Starting new cluster at offset 324830 bytes, pts 42dts 42
[matroska @ 0x2781f00] Writing block at offset 9, size 323397, pts 42, dts 42, duration 42, keyframe 1
cur_dts is invalid (this is harmless if it occurs once at the start per stream)
[matroska @ 0x2781f00] Starting new cluster at offset 648256 bytes, pts 83dts 83
[matroska @ 0x2781f00] Writing block at offset 9, size 324935, pts 83, dts 83, duration 42, keyframe 1
cur_dts is invalid (this is harmless if it occurs once at the start per stream)
[matroska @ 0x2781f00] Starting new cluster at offset 973220 bytes, pts 125dts 125
[matroska @ 0x2781f00] Writing block at offset 9, size 327998, pts 125, dts 125, duration 42, keyframe 1
cur_dts is invalid (this is harmless if it occurs once at the start per stream)
[matroska @ 0x2781f00] Starting new cluster at offset 1301247 bytes, pts 167dts 167
[matroska @ 0x2781f00] Writing block at offset 9, size 331126, pts 167, dts 167, duration 42, keyframe 1
cur_dts is invalid (this is harmless if it occurs once at the start per stream)
[image2 @ 0x277e7c0] Opening '/home/kieran110s/ifigit/ifiscripts/rawcooked_examples/dpx_48_frames/dont_call_me_eddie_000006.dpx' for reading
[file @ 0x278aac0] Setting default whitelist 'file,crypto'
[AVIOContext @ 0x27816c0] Statistics: 1230464 bytes read, 0 seeks
[matroska @ 0x2781f00] Starting new cluster at offset 1632402 bytes, pts 208dts 208
[matroska @ 0x2781f00] Writing block at offset 9, size 334575, pts 208, dts 208, duration 42, keyframe 1
cur_dts is invalid (this is harmless if it occurs once at the start per stream)
[image2 @ 0x277e7c0] Opening '/home/kieran110s/ifigit/ifiscripts/rawcooked_examples/dpx_48_frames/dont_call_me_eddie_000007.dpx' for reading
[file @ 0x278bf40] Setting default whitelist 'file,crypto'
[AVIOContext @ 0x27816c0] Statistics: 1230464 bytes read, 0 seeks
[matroska @ 0x2781f00] Starting new cluster at offset 1967006 bytes, pts 250dts 250
[matroska @ 0x2781f00] Writing block at offset 9, size 338131, pts 250, dts 250, duration 42, keyframe 1
cur_dts is invalid (this is harmless if it occurs once at the start per stream)
[image2 @ 0x277e7c0] Opening '/home/kieran110s/ifigit/ifiscripts/rawcooked_examples/dpx_48_frames/dont_call_me_eddie_000008.dpx' for reading
[file @ 0x278bf40] Setting default whitelist 'file,crypto'
[AVIOContext @ 0x27816c0] Statistics: 1230464 bytes read, 0 seeks
[matroska @ 0x2781f00] Starting new cluster at offset 2305166 bytes, pts 292dts 292
[matroska @ 0x2781f00] Writing block at offset 10, size 342891, pts 292, dts 292, duration 42, keyframe 1
cur_dts is invalid (this is harmless if it occurs once at the start per stream)
[image2 @ 0x277e7c0] Opening '/home/kieran110s/ifigit/ifiscripts/rawcooked_examples/dpx_48_frames/dont_call_me_eddie_000009.dpx' for reading
[file @ 0x278aac0] Setting default whitelist 'file,crypto'
[AVIOContext @ 0x27816c0] Statistics: 1230464 bytes read, 0 seeks
[matroska @ 0x2781f00] Starting new cluster at offset 2648087 bytes, pts 333dts 333
[matroska @ 0x2781f00] Writing block at offset 10, size 348006, pts 333, dts 333, duration 42, keyframe 1
cur_dts is invalid (this is harmless if it occurs once at the start per stream)
[image2 @ 0x277e7c0] Opening '/home/kieran110s/ifigit/ifiscripts/rawcooked_examples/dpx_48_frames/dont_call_me_eddie_000010.dpx' for reading
[file @ 0x278bf40] Setting default whitelist 'file,crypto'
[AVIOContext @ 0x27816c0] Statistics: 1230464 bytes read, 0 seeks
[matroska @ 0x2781f00] Starting new cluster at offset 2996123 bytes, pts 375dts 375
[matroska @ 0x2781f00] Writing block at offset 10, size 352851, pts 375, dts 375, duration 42, keyframe 1
cur_dts is invalid (this is harmless if it occurs once at the start per stream)
[image2 @ 0x277e7c0] Opening '/home/kieran110s/ifigit/ifiscripts/rawcooked_examples/dpx_48_frames/dont_call_me_eddie_000011.dpx' for reading
[file @ 0x278bf40] Setting default whitelist 'file,crypto'
[AVIOContext @ 0x277f7c0] Statistics: 1230464 bytes read, 0 seeks
[matroska @ 0x2781f00] Starting new cluster at offset 3349004 bytes, pts 417dts 417
[matroska @ 0x2781f00] Writing block at offset 10, size 357851, pts 417, dts 417, duration 42, keyframe 1
cur_dts is invalid (this is harmless if it occurs once at the start per stream)
[image2 @ 0x277e7c0] Opening '/home/kieran110s/ifigit/ifiscripts/rawcooked_examples/dpx_48_frames/dont_call_me_eddie_000012.dpx' for reading
[file @ 0x278bf40] Setting default whitelist 'file,crypto'
[AVIOContext @ 0x27816c0] Statistics: 1230464 bytes read, 0 seeks
[matroska @ 0x2781f00] Starting new cluster at offset 3706885 bytes, pts 458dts 458
[matroska @ 0x2781f00] Writing block at offset 10, size 361934, pts 458, dts 458, duration 42, keyframe 1
cur_dts is invalid (this is harmless if it occurs once at the start per stream)
[image2 @ 0x277e7c0] Opening '/home/kieran110s/ifigit/ifiscripts/rawcooked_examples/dpx_48_frames/dont_call_me_eddie_000013.dpx' for reading
[file @ 0x278bf40] Setting default whitelist 'file,crypto'
[AVIOContext @ 0x27816c0] Statistics: 1230464 bytes read, 0 seeks
[matroska @ 0x2781f00] Starting new cluster at offset 4068849 bytes, pts 500dts 500
[matroska @ 0x2781f00] Writing block at offset 10, size 366178, pts 500, dts 500, duration 42, keyframe 1
cur_dts is invalid (this is harmless if it occurs once at the start per stream)
[image2 @ 0x277e7c0] Opening '/home/kieran110s/ifigit/ifiscripts/rawcooked_examples/dpx_48_frames/dont_call_me_eddie_000014.dpx' for reading
[file @ 0x278bf40] Setting default whitelist 'file,crypto'
[AVIOContext @ 0x27816c0] Statistics: 1230464 bytes read, 0 seeks
[matroska @ 0x2781f00] Starting new cluster at offset 4435057 bytes, pts 542dts 542
[matroska @ 0x2781f00] Writing block at offset 10, size 372102, pts 542, dts 542, duration 42, keyframe 1
cur_dts is invalid (this is harmless if it occurs once at the start per stream)
[image2 @ 0x277e7c0] Opening '/home/kieran110s/ifigit/ifiscripts/rawcooked_examples/dpx_48_frames/dont_call_me_eddie_000015.dpx' for reading
[file @ 0x278bf40] Setting default whitelist 'file,crypto'
[AVIOContext @ 0x27816c0] Statistics: 1230464 bytes read, 0 seeks
[matroska @ 0x2781f00] Starting new cluster at offset 4807189 bytes, pts 583dts 583
[matroska @ 0x2781f00] Writing block at offset 10, size 376787, pts 583, dts 583, duration 42, keyframe 1
frame=   15 fps=0.0 q=-0.0 size=    4695kB time=00:00:00.58 bitrate=65851.9kbits/s speed=1.12x    cur_dts is invalid (this is harmless if it occurs once at the start per stream)
[image2 @ 0x277e7c0] Opening '/home/kieran110s/ifigit/ifiscripts/rawcooked_examples/dpx_48_frames/dont_call_me_eddie_000016.dpx' for reading
[file @ 0x278bf40] Setting default whitelist 'file,crypto'
[AVIOContext @ 0x27816c0] Statistics: 1230464 bytes read, 0 seeks
[matroska @ 0x2781f00] Starting new cluster at offset 5184006 bytes, pts 625dts 625
[matroska @ 0x2781f00] Writing block at offset 10, size 379531, pts 625, dts 625, duration 42, keyframe 1
cur_dts is invalid (this is harmless if it occurs once at the start per stream)
[image2 @ 0x277e7c0] Opening '/home/kieran110s/ifigit/ifiscripts/rawcooked_examples/dpx_48_frames/dont_call_me_eddie_000017.dpx' for reading
[file @ 0x2789140] Setting default whitelist 'file,crypto'
[AVIOContext @ 0x27816c0] Statistics: 1230464 bytes read, 0 seeks
[matroska @ 0x2781f00] Starting new cluster at offset 5563567 bytes, pts 667dts 667
[matroska @ 0x2781f00] Writing block at offset 10, size 383112, pts 667, dts 667, duration 42, keyframe 1
cur_dts is invalid (this is harmless if it occurs once at the start per stream)
[image2 @ 0x277e7c0] Opening '/home/kieran110s/ifigit/ifiscripts/rawcooked_examples/dpx_48_frames/dont_call_me_eddie_000018.dpx' for reading
[file @ 0x2789140] Setting default whitelist 'file,crypto'
[AVIOContext @ 0x27816c0] Statistics: 1230464 bytes read, 0 seeks
[matroska @ 0x2781f00] Starting new cluster at offset 5946709 bytes, pts 708dts 708
[matroska @ 0x2781f00] Writing block at offset 10, size 386487, pts 708, dts 708, duration 42, keyframe 1
cur_dts is invalid (this is harmless if it occurs once at the start per stream)
[image2 @ 0x277e7c0] Opening '/home/kieran110s/ifigit/ifiscripts/rawcooked_examples/dpx_48_frames/dont_call_me_eddie_000019.dpx' for reading
[file @ 0x2789140] Setting default whitelist 'file,crypto'
[AVIOContext @ 0x278b1c0] Statistics: 1230464 bytes read, 0 seeks
[matroska @ 0x2781f00] Starting new cluster at offset 6333226 bytes, pts 750dts 750
[matroska @ 0x2781f00] Writing block at offset 10, size 389203, pts 750, dts 750, duration 42, keyframe 1
cur_dts is invalid (this is harmless if it occurs once at the start per stream)
[image2 @ 0x277e7c0] Opening '/home/kieran110s/ifigit/ifiscripts/rawcooked_examples/dpx_48_frames/dont_call_me_eddie_000020.dpx' for reading
[file @ 0x2789140] Setting default whitelist 'file,crypto'
[AVIOContext @ 0x2786540] Statistics: 1230464 bytes read, 0 seeks
[matroska @ 0x2781f00] Starting new cluster at offset 6722459 bytes, pts 792dts 792
[matroska @ 0x2781f00] Writing block at offset 10, size 392266, pts 792, dts 792, duration 42, keyframe 1
cur_dts is invalid (this is harmless if it occurs once at the start per stream)
[image2 @ 0x277e7c0] Opening '/home/kieran110s/ifigit/ifiscripts/rawcooked_examples/dpx_48_frames/dont_call_me_eddie_000021.dpx' for reading
[file @ 0x2789140] Setting default whitelist 'file,crypto'
[AVIOContext @ 0x27816c0] Statistics: 1230464 bytes read, 0 seeks
[matroska @ 0x2781f00] Starting new cluster at offset 7114755 bytes, pts 833dts 833
[matroska @ 0x2781f00] Writing block at offset 10, size 393766, pts 833, dts 833, duration 42, keyframe 1
cur_dts is invalid (this is harmless if it occurs once at the start per stream)
[image2 @ 0x277e7c0] Opening '/home/kieran110s/ifigit/ifiscripts/rawcooked_examples/dpx_48_frames/dont_call_me_eddie_000022.dpx' for reading
[file @ 0x278bf40] Setting default whitelist 'file,crypto'
[AVIOContext @ 0x27816c0] Statistics: 1230464 bytes read, 0 seeks
[matroska @ 0x2781f00] Starting new cluster at offset 7508551 bytes, pts 875dts 875
[matroska @ 0x2781f00] Writing block at offset 10, size 397293, pts 875, dts 875, duration 42, keyframe 1
cur_dts is invalid (this is harmless if it occurs once at the start per stream)
[image2 @ 0x277e7c0] Opening '/home/kieran110s/ifigit/ifiscripts/rawcooked_examples/dpx_48_frames/dont_call_me_eddie_000023.dpx' for reading
[file @ 0x278bf40] Setting default whitelist 'file,crypto'
[AVIOContext @ 0x27816c0] Statistics: 1230464 bytes read, 0 seeks
[matroska @ 0x2781f00] Starting new cluster at offset 7905874 bytes, pts 917dts 917
[matroska @ 0x2781f00] Writing block at offset 10, size 398460, pts 917, dts 917, duration 42, keyframe 1
cur_dts is invalid (this is harmless if it occurs once at the start per stream)
[image2 @ 0x277e7c0] Opening '/home/kieran110s/ifigit/ifiscripts/rawcooked_examples/dpx_48_frames/dont_call_me_eddie_000024.dpx' for reading
[file @ 0x2789140] Setting default whitelist 'file,crypto'
[AVIOContext @ 0x27816c0] Statistics: 1230464 bytes read, 0 seeks
[matroska @ 0x2781f00] Starting new cluster at offset 8304364 bytes, pts 958dts 958
[matroska @ 0x2781f00] Writing block at offset 10, size 401001, pts 958, dts 958, duration 42, keyframe 1
cur_dts is invalid (this is harmless if it occurs once at the start per stream)
[image2 @ 0x277e7c0] Opening '/home/kieran110s/ifigit/ifiscripts/rawcooked_examples/dpx_48_frames/dont_call_me_eddie_000025.dpx' for reading
[file @ 0x2789140] Setting default whitelist 'file,crypto'
[AVIOContext @ 0x27816c0] Statistics: 1230464 bytes read, 0 seeks
[matroska @ 0x2781f00] Starting new cluster at offset 8705395 bytes, pts 1000dts 1000
[matroska @ 0x2781f00] Writing block at offset 10, size 404072, pts 1000, dts 1000, duration 42, keyframe 1
cur_dts is invalid (this is harmless if it occurs once at the start per stream)
[image2 @ 0x277e7c0] Opening '/home/kieran110s/ifigit/ifiscripts/rawcooked_examples/dpx_48_frames/dont_call_me_eddie_000026.dpx' for reading
[file @ 0x2789140] Setting default whitelist 'file,crypto'
[AVIOContext @ 0x27816c0] Statistics: 1230464 bytes read, 0 seeks
[matroska @ 0x2781f00] Starting new cluster at offset 9109497 bytes, pts 1042dts 1042
[matroska @ 0x2781f00] Writing block at offset 10, size 406694, pts 1042, dts 1042, duration 42, keyframe 1
cur_dts is invalid (this is harmless if it occurs once at the start per stream)
[image2 @ 0x277e7c0] Opening '/home/kieran110s/ifigit/ifiscripts/rawcooked_examples/dpx_48_frames/dont_call_me_eddie_000027.dpx' for reading
[file @ 0x278bf40] Setting default whitelist 'file,crypto'
[AVIOContext @ 0x27816c0] Statistics: 1230464 bytes read, 0 seeks
[matroska @ 0x2781f00] Starting new cluster at offset 9516221 bytes, pts 1083dts 1083
[matroska @ 0x2781f00] Writing block at offset 10, size 408259, pts 1083, dts 1083, duration 42, keyframe 1
cur_dts is invalid (this is harmless if it occurs once at the start per stream)
[image2 @ 0x277e7c0] Opening '/home/kieran110s/ifigit/ifiscripts/rawcooked_examples/dpx_48_frames/dont_call_me_eddie_000028.dpx' for reading
[file @ 0x2789140] Setting default whitelist 'file,crypto'
[AVIOContext @ 0x27816c0] Statistics: 1230464 bytes read, 0 seeks
[matroska @ 0x2781f00] Starting new cluster at offset 9924510 bytes, pts 1125dts 1125
[matroska @ 0x2781f00] Writing block at offset 10, size 411363, pts 1125, dts 1125, duration 42, keyframe 1
cur_dts is invalid (this is harmless if it occurs once at the start per stream)
[image2 @ 0x277e7c0] Opening '/home/kieran110s/ifigit/ifiscripts/rawcooked_examples/dpx_48_frames/dont_call_me_eddie_000029.dpx' for reading
[file @ 0x278bf40] Setting default whitelist 'file,crypto'
[AVIOContext @ 0x27816c0] Statistics: 1230464 bytes read, 0 seeks
[matroska @ 0x2781f00] Starting new cluster at offset 10335903 bytes, pts 1167dts 1167
[matroska @ 0x2781f00] Writing block at offset 10, size 413394, pts 1167, dts 1167, duration 42, keyframe 1
cur_dts is invalid (this is harmless if it occurs once at the start per stream)
[image2 @ 0x277e7c0] Opening '/home/kieran110s/ifigit/ifiscripts/rawcooked_examples/dpx_48_frames/dont_call_me_eddie_000030.dpx' for reading
[file @ 0x278bf40] Setting default whitelist 'file,crypto'
[AVIOContext @ 0x27816c0] Statistics: 1230464 bytes read, 0 seeks
[matroska @ 0x2781f00] Starting new cluster at offset 10749327 bytes, pts 1208dts 1208
[matroska @ 0x2781f00] Writing block at offset 10, size 416045, pts 1208, dts 1208, duration 42, keyframe 1
frame=   30 fps= 28 q=-0.0 size=   10497kB time=00:00:01.20 bitrate=71128.7kbits/s speed=1.15x    cur_dts is invalid (this is harmless if it occurs once at the start per stream)
[image2 @ 0x277e7c0] Opening '/home/kieran110s/ifigit/ifiscripts/rawcooked_examples/dpx_48_frames/dont_call_me_eddie_000031.dpx' for reading
[file @ 0x2789140] Setting default whitelist 'file,crypto'
[AVIOContext @ 0x27816c0] Statistics: 1230464 bytes read, 0 seeks
[matroska @ 0x2781f00] Starting new cluster at offset 11165402 bytes, pts 1250dts 1250
[matroska @ 0x2781f00] Writing block at offset 10, size 418035, pts 1250, dts 1250, duration 42, keyframe 1
cur_dts is invalid (this is harmless if it occurs once at the start per stream)
[image2 @ 0x277e7c0] Opening '/home/kieran110s/ifigit/ifiscripts/rawcooked_examples/dpx_48_frames/dont_call_me_eddie_000032.dpx' for reading
[file @ 0x2789140] Setting default whitelist 'file,crypto'
[AVIOContext @ 0x27816c0] Statistics: 1230464 bytes read, 0 seeks
[matroska @ 0x2781f00] Starting new cluster at offset 11583467 bytes, pts 1292dts 1292
[matroska @ 0x2781f00] Writing block at offset 10, size 419777, pts 1292, dts 1292, duration 42, keyframe 1
cur_dts is invalid (this is harmless if it occurs once at the start per stream)
[image2 @ 0x277e7c0] Opening '/home/kieran110s/ifigit/ifiscripts/rawcooked_examples/dpx_48_frames/dont_call_me_eddie_000033.dpx' for reading
[file @ 0x2789140] Setting default whitelist 'file,crypto'
[AVIOContext @ 0x27816c0] Statistics: 1230464 bytes read, 0 seeks
[matroska @ 0x2781f00] Starting new cluster at offset 12003274 bytes, pts 1333dts 1333
[matroska @ 0x2781f00] Writing block at offset 10, size 422476, pts 1333, dts 1333, duration 42, keyframe 1
cur_dts is invalid (this is harmless if it occurs once at the start per stream)
[image2 @ 0x277e7c0] Opening '/home/kieran110s/ifigit/ifiscripts/rawcooked_examples/dpx_48_frames/dont_call_me_eddie_000034.dpx' for reading
[file @ 0x278bf40] Setting default whitelist 'file,crypto'
[AVIOContext @ 0x27816c0] Statistics: 1230464 bytes read, 0 seeks
[matroska @ 0x2781f00] Starting new cluster at offset 12425780 bytes, pts 1375dts 1375
[matroska @ 0x2781f00] Writing block at offset 10, size 423606, pts 1375, dts 1375, duration 42, keyframe 1
cur_dts is invalid (this is harmless if it occurs once at the start per stream)
[image2 @ 0x277e7c0] Opening '/home/kieran110s/ifigit/ifiscripts/rawcooked_examples/dpx_48_frames/dont_call_me_eddie_000035.dpx' for reading
[file @ 0x278bf40] Setting default whitelist 'file,crypto'
[AVIOContext @ 0x27816c0] Statistics: 1230464 bytes read, 0 seeks
[matroska @ 0x2781f00] Starting new cluster at offset 12849416 bytes, pts 1417dts 1417
[matroska @ 0x2781f00] Writing block at offset 10, size 425661, pts 1417, dts 1417, duration 42, keyframe 1
cur_dts is invalid (this is harmless if it occurs once at the start per stream)
[image2 @ 0x277e7c0] Opening '/home/kieran110s/ifigit/ifiscripts/rawcooked_examples/dpx_48_frames/dont_call_me_eddie_000036.dpx' for reading
[file @ 0x2789140] Setting default whitelist 'file,crypto'
[AVIOContext @ 0x27816c0] Statistics: 1230464 bytes read, 0 seeks
[matroska @ 0x2781f00] Starting new cluster at offset 13275107 bytes, pts 1458dts 1458
[matroska @ 0x2781f00] Writing block at offset 10, size 427347, pts 1458, dts 1458, duration 42, keyframe 1
cur_dts is invalid (this is harmless if it occurs once at the start per stream)
[image2 @ 0x277e7c0] Opening '/home/kieran110s/ifigit/ifiscripts/rawcooked_examples/dpx_48_frames/dont_call_me_eddie_000037.dpx' for reading
[file @ 0x278bf40] Setting default whitelist 'file,crypto'
[AVIOContext @ 0x27816c0] Statistics: 1230464 bytes read, 0 seeks
[matroska @ 0x2781f00] Starting new cluster at offset 13702484 bytes, pts 1500dts 1500
[matroska @ 0x2781f00] Writing block at offset 10, size 429190, pts 1500, dts 1500, duration 42, keyframe 1
cur_dts is invalid (this is harmless if it occurs once at the start per stream)
[image2 @ 0x277e7c0] Opening '/home/kieran110s/ifigit/ifiscripts/rawcooked_examples/dpx_48_frames/dont_call_me_eddie_000038.dpx' for reading
[file @ 0x278bf40] Setting default whitelist 'file,crypto'
[AVIOContext @ 0x27816c0] Statistics: 1230464 bytes read, 0 seeks
[matroska @ 0x2781f00] Starting new cluster at offset 14131704 bytes, pts 1542dts 1542
[matroska @ 0x2781f00] Writing block at offset 10, size 432584, pts 1542, dts 1542, duration 42, keyframe 1
cur_dts is invalid (this is harmless if it occurs once at the start per stream)
[image2 @ 0x277e7c0] Opening '/home/kieran110s/ifigit/ifiscripts/rawcooked_examples/dpx_48_frames/dont_call_me_eddie_000039.dpx' for reading
[file @ 0x2789140] Setting default whitelist 'file,crypto'
[AVIOContext @ 0x27816c0] Statistics: 1230464 bytes read, 0 seeks
[matroska @ 0x2781f00] Starting new cluster at offset 14564318 bytes, pts 1583dts 1583
[matroska @ 0x2781f00] Writing block at offset 10, size 434114, pts 1583, dts 1583, duration 42, keyframe 1
cur_dts is invalid (this is harmless if it occurs once at the start per stream)
[image2 @ 0x277e7c0] Opening '/home/kieran110s/ifigit/ifiscripts/rawcooked_examples/dpx_48_frames/dont_call_me_eddie_000040.dpx' for reading
[file @ 0x278bf40] Setting default whitelist 'file,crypto'
[AVIOContext @ 0x27816c0] Statistics: 1230464 bytes read, 0 seeks
[matroska @ 0x2781f00] Starting new cluster at offset 14998462 bytes, pts 1625dts 1625
[matroska @ 0x2781f00] Writing block at offset 10, size 436483, pts 1625, dts 1625, duration 42, keyframe 1
cur_dts is invalid (this is harmless if it occurs once at the start per stream)
[image2 @ 0x277e7c0] Opening '/home/kieran110s/ifigit/ifiscripts/rawcooked_examples/dpx_48_frames/dont_call_me_eddie_000041.dpx' for reading
[file @ 0x2789140] Setting default whitelist 'file,crypto'
[AVIOContext @ 0x27816c0] Statistics: 1230464 bytes read, 0 seeks
[matroska @ 0x2781f00] Starting new cluster at offset 15434975 bytes, pts 1667dts 1667
[matroska @ 0x2781f00] Writing block at offset 10, size 438245, pts 1667, dts 1667, duration 42, keyframe 1
cur_dts is invalid (this is harmless if it occurs once at the start per stream)
[image2 @ 0x277e7c0] Opening '/home/kieran110s/ifigit/ifiscripts/rawcooked_examples/dpx_48_frames/dont_call_me_eddie_000042.dpx' for reading
[file @ 0x278bf40] Setting default whitelist 'file,crypto'
[AVIOContext @ 0x27816c0] Statistics: 1230464 bytes read, 0 seeks
[matroska @ 0x2781f00] Starting new cluster at offset 15873250 bytes, pts 1708dts 1708
[matroska @ 0x2781f00] Writing block at offset 10, size 439795, pts 1708, dts 1708, duration 42, keyframe 1
cur_dts is invalid (this is harmless if it occurs once at the start per stream)
[image2 @ 0x277e7c0] Opening '/home/kieran110s/ifigit/ifiscripts/rawcooked_examples/dpx_48_frames/dont_call_me_eddie_000043.dpx' for reading
[file @ 0x2789140] Setting default whitelist 'file,crypto'
[AVIOContext @ 0x27816c0] Statistics: 1230464 bytes read, 0 seeks
[matroska @ 0x2781f00] Starting new cluster at offset 16313075 bytes, pts 1750dts 1750
[matroska @ 0x2781f00] Writing block at offset 10, size 441968, pts 1750, dts 1750, duration 42, keyframe 1
cur_dts is invalid (this is harmless if it occurs once at the start per stream)
[image2 @ 0x277e7c0] Opening '/home/kieran110s/ifigit/ifiscripts/rawcooked_examples/dpx_48_frames/dont_call_me_eddie_000044.dpx' for reading
[file @ 0x2789140] Setting default whitelist 'file,crypto'
[AVIOContext @ 0x27816c0] Statistics: 1230464 bytes read, 0 seeks
[matroska @ 0x2781f00] Starting new cluster at offset 16755073 bytes, pts 1792dts 1792
[matroska @ 0x2781f00] Writing block at offset 10, size 444537, pts 1792, dts 1792, duration 42, keyframe 1
frame=   44 fps= 28 q=-0.0 size=   16362kB time=00:00:01.79 bitrate=74757.7kbits/s speed=1.14x    cur_dts is invalid (this is harmless if it occurs once at the start per stream)
[image2 @ 0x277e7c0] Opening '/home/kieran110s/ifigit/ifiscripts/rawcooked_examples/dpx_48_frames/dont_call_me_eddie_000045.dpx' for reading
[file @ 0x2789140] Setting default whitelist 'file,crypto'
[AVIOContext @ 0x27816c0] Statistics: 1230464 bytes read, 0 seeks
[matroska @ 0x2781f00] Starting new cluster at offset 17199640 bytes, pts 1833dts 1833
[matroska @ 0x2781f00] Writing block at offset 10, size 444347, pts 1833, dts 1833, duration 42, keyframe 1
cur_dts is invalid (this is harmless if it occurs once at the start per stream)
[image2 @ 0x277e7c0] Opening '/home/kieran110s/ifigit/ifiscripts/rawcooked_examples/dpx_48_frames/dont_call_me_eddie_000046.dpx' for reading
[file @ 0x2789140] Setting default whitelist 'file,crypto'
[AVIOContext @ 0x27816c0] Statistics: 1230464 bytes read, 0 seeks
[matroska @ 0x2781f00] Starting new cluster at offset 17644017 bytes, pts 1875dts 1875
[matroska @ 0x2781f00] Writing block at offset 10, size 446913, pts 1875, dts 1875, duration 42, keyframe 1
cur_dts is invalid (this is harmless if it occurs once at the start per stream)
[image2 @ 0x277e7c0] Opening '/home/kieran110s/ifigit/ifiscripts/rawcooked_examples/dpx_48_frames/dont_call_me_eddie_000047.dpx' for reading
[file @ 0x278bf40] Setting default whitelist 'file,crypto'
[AVIOContext @ 0x27816c0] Statistics: 1230464 bytes read, 0 seeks
[matroska @ 0x2781f00] Starting new cluster at offset 18090960 bytes, pts 1917dts 1917
[matroska @ 0x2781f00] Writing block at offset 10, size 448042, pts 1917, dts 1917, duration 42, keyframe 1
cur_dts is invalid (this is harmless if it occurs once at the start per stream)
[image2 @ 0x277e7c0] Opening '/home/kieran110s/ifigit/ifiscripts/rawcooked_examples/dpx_48_frames/dont_call_me_eddie_000048.dpx' for reading
[file @ 0x2789140] Setting default whitelist 'file,crypto'
[AVIOContext @ 0x27816c0] Statistics: 1230464 bytes read, 0 seeks
[matroska @ 0x2781f00] Starting new cluster at offset 18539032 bytes, pts 1958dts 1958
[matroska @ 0x2781f00] Writing block at offset 10, size 450579, pts 1958, dts 1958, duration 42, keyframe 1
cur_dts is invalid (this is harmless if it occurs once at the start per stream)
cur_dts is invalid (this is harmless if it occurs once at the start per stream)
[out_0_0 @ 0x278a080] EOF on sink link out_0_0:default.
No more output streams to write to, finishing.
[matroska @ 0x2781f00] end duration = 2000
[matroska @ 0x2781f00] stream 0 end duration = 2000
frame=   48 fps= 27 q=-0.0 Lsize=   18545kB time=00:00:01.95 bitrate=77552.1kbits/s speed=1.12x    
video:18540kB audio:0kB subtitle:0kB other streams:0kB global headers:0kB muxing overhead: 0.030561%
Input file #0 (/home/kieran110s/ifigit/ifiscripts/rawcooked_examples/dpx_48_frames/dont_call_me_eddie_%06d.dpx):
  Input stream #0:0 (video): 48 packets read (59062272 bytes); 48 frames decoded; 
  Total: 48 packets (59062272 bytes) demuxed
Output file #0 (/home/kieran110s/ifigit/ifiscripts/rawcooked_examples/ifi_rawcooked_sample_package/7fc037bd-c323-4db1-9b49-07c605ba6064.mkv):
  Output stream #0:0 (video): 48 frames encoded; 48 packets muxed (18984765 bytes); 
  Output stream #0:1 (attachment): 0 packets muxed (0 bytes); 
  Total: 48 packets (18984765 bytes) muxed
48 frames successfully decoded, 0 decoding errors
[AVIOContext @ 0x2786c80] Statistics: 110 seeks, 154 writeouts
